<svg width="119" height="106" viewBox="0 0 119 106" fill="none" xmlns="http://www.w3.org/2000/svg">
<rect width="119" height="106" fill="#F5F5F5"/>
<path d="M63.7266 59.6377L46.5146 91.3516C45.7822 92.7188 44.9033 93.8662 43.8779 94.7939C42.8525 95.6729 41.4365 96.1123 39.6299 96.1123C37.9697 96.1123 36.5781 95.6484 35.4551 94.7207C34.3809 93.793 33.4775 92.6943 32.7451 91.4248L14.5811 60.2236C14.874 66.8154 15.1426 72.8945 15.3867 78.4609C15.4844 80.8535 15.582 83.2461 15.6797 85.6387C15.7773 88.0312 15.875 90.2529 15.9727 92.3037C16.0703 94.3545 16.1436 96.1855 16.1924 97.7969C16.29 99.3594 16.3633 100.507 16.4121 101.239C16.4609 101.972 16.4365 102.631 16.3389 103.217C16.29 103.803 16.1191 104.315 15.8262 104.755C15.5332 105.146 15.1182 105.463 14.5811 105.707C14.0439 105.902 13.3115 106 12.3838 106H4.32715C3.44824 106 2.61816 105.731 1.83691 105.194C1.10449 104.608 0.738281 103.485 0.738281 101.825V8.66113C0.738281 7.7334 0.860352 6.80566 1.10449 5.87793C1.39746 4.9502 1.86133 4.12012 2.49609 3.3877C3.17969 2.60645 4.05859 1.99609 5.13281 1.55664C6.20703 1.06836 7.52539 0.824219 9.08789 0.824219H32.6719C34.5762 0.824219 36.2119 1.16602 37.5791 1.84961C38.9463 2.48438 40.1182 3.55859 41.0947 5.07227L60.7969 36.3467L73.9805 11.0781C74.7617 9.56445 75.5186 8.19727 76.251 6.97656C76.9834 5.70703 77.8379 4.63281 78.8145 3.75391C79.8398 2.82617 81.085 2.11816 82.5498 1.62988C84.0635 1.09277 85.9922 0.824219 88.3359 0.824219H107.818C109.674 0.824219 111.261 1.06836 112.579 1.55664C113.946 2.04492 115.045 2.7041 115.875 3.53418C116.754 4.36426 117.389 5.34082 117.779 6.46387C118.17 7.58691 118.365 8.80762 118.365 10.126V95.8193C118.365 97.333 118.243 98.7246 117.999 99.9941C117.755 101.215 117.242 102.289 116.461 103.217C115.729 104.096 114.654 104.779 113.238 105.268C111.871 105.756 110.064 106 107.818 106H73.9805C71.9785 106 70.3184 105.78 69 105.341C67.6816 104.901 66.6318 104.267 65.8506 103.437C65.0693 102.606 64.5078 101.557 64.166 100.287C63.873 99.0176 63.7266 97.5283 63.7266 95.8193V59.6377ZM35.6748 9.02734C35.0889 8.05078 34.4297 7.46484 33.6973 7.26953C33.0137 7.07422 32.2812 6.97656 31.5 6.97656H27.8379L54.2051 48.8711L57.208 43.2314L35.6748 9.02734ZM112.14 11.6641C112.14 10.5898 112.066 9.73535 111.92 9.10059C111.773 8.46582 111.48 8.00195 111.041 7.70898C110.602 7.36719 110.016 7.17188 109.283 7.12305C108.551 7.02539 107.599 6.97656 106.427 6.97656V99.8477C107.599 99.8477 108.551 99.8232 109.283 99.7744C110.016 99.6768 110.602 99.4814 111.041 99.1885C111.48 98.8467 111.773 98.3828 111.92 97.7969C112.066 97.1621 112.14 96.2832 112.14 95.1602V11.6641Z" fill="black"/>
<path d="M93.3623 97.5679L84.8665 97.2741L84.8643 100.49C84.8642 100.746 84.7681 100.874 84.5761 100.874C84.0001 100.874 83.3443 100.601 82.6086 100.057C81.841 99.5121 81.4574 98.9198 81.4578 98.2798L81.4585 97.2718C78.9625 97.3342 77.1704 97.3969 76.0824 97.4602C74.1303 97.5869 72.6261 97.9059 71.5697 98.4172L71.0896 98.6568C70.9295 98.7847 70.7375 98.8486 70.5135 98.8484C70.2895 98.8483 70.0976 98.6722 69.9378 98.3201C69.778 97.9679 69.5864 97.4558 69.3629 96.7837C69.1393 96.0795 68.8523 94.6073 68.5018 92.3671C68.1193 90.1268 67.929 87.6947 67.9308 85.0707C67.9326 82.4147 68.1255 80.9748 68.5097 80.7511C68.8939 80.4953 69.5019 80.3678 70.3339 80.3683C71.1339 80.3689 71.5339 80.4811 71.5337 80.7051C71.5337 80.7371 71.5176 80.8491 71.4855 81.0411C71.3571 81.553 71.2926 82.337 71.2919 83.393C71.2912 84.449 71.3864 85.585 71.5776 86.8012C71.7688 88.0173 71.9601 88.9454 72.1517 89.5855L72.4871 90.4978C72.5509 90.7538 72.7748 90.946 73.1587 91.0742C75.0465 91.3315 77.8144 91.4614 81.4624 91.4638L81.4677 83.6878C81.4679 83.3998 81.564 83.2559 81.756 83.256C82.332 83.2564 83.0038 83.5129 83.7715 84.0254C84.5391 84.5379 84.9227 85.1142 84.9223 85.7542L84.8704 91.4661L99.2707 91.1399C99.9747 91.1403 100.487 91.2527 100.806 91.4769C101.606 92.0855 102.197 93.1259 102.58 94.5981C102.995 96.0384 103.203 97.2385 103.202 98.1985C103.202 98.4545 103.042 98.5824 102.722 98.5822C102.562 98.5821 102.434 98.566 102.338 98.5339C101.794 98.1496 98.8022 97.8276 93.3623 97.5679ZM71.2067 67.446C71.2059 68.598 71.6213 69.5583 72.4527 70.3269C73.9238 71.6719 75.7954 72.3451 78.0674 72.3467C80.3074 72.3482 81.6518 71.7731 82.1005 70.6214C82.1967 70.3335 82.4048 70.1896 82.7248 70.1898C83.6848 70.1905 84.5006 70.511 85.1722 71.1515C85.8117 71.7919 86.1952 72.5762 86.3226 73.5042C86.3224 73.7922 86.4343 73.9363 86.6583 73.9365C87.0103 73.9687 87.5223 73.9851 88.1943 73.9855C88.8343 73.9859 89.5543 73.9544 90.3543 73.891C91.1224 73.8275 92.0505 73.6841 93.1386 73.4609C94.1948 73.2056 95.123 72.8862 95.9233 72.5027C96.6915 72.0873 97.3639 71.5117 97.9404 70.7761C98.485 70.0085 98.7576 69.0326 98.7584 67.8486C98.7592 66.6326 98.28 65.5443 97.3206 64.5837C96.3613 63.623 95.1137 62.9502 93.578 62.5651C90.8905 61.8593 88.3147 61.5056 85.8507 61.5039C83.3547 61.5022 81.1626 61.6608 79.2744 61.9795C77.3862 62.2982 75.9459 62.6812 74.9536 63.1286C73.9613 63.5439 73.161 64.0553 72.5526 64.6629C71.9441 65.2705 71.5758 65.7823 71.4475 66.1982C71.2872 66.6141 71.207 67.03 71.2067 67.446ZM75.9528 76.1852L75.6649 75.993C74.1931 75.672 72.9295 75.1592 71.8739 74.4545C70.7864 73.7177 69.9869 72.9972 69.4754 72.2929C68.9319 71.5565 68.5165 70.7402 68.2291 69.844C67.8459 68.6598 67.6546 67.6196 67.6552 66.7236C67.6566 64.5796 68.1539 62.74 69.1469 61.2046C70.14 59.6373 71.4848 58.4542 73.1813 57.6554C76.4143 56.1855 80.0788 55.452 84.1748 55.4548C91.0548 55.4594 96.0617 57.0628 99.1955 60.2649C100.73 61.834 101.769 63.5627 102.312 65.451C102.663 66.6353 102.838 67.7714 102.838 68.8594C102.835 72.8594 101.473 75.8025 98.7518 77.6886C95.9985 79.5748 92.5259 80.5164 88.3339 80.5136C85.9019 80.512 83.678 80.3025 81.6623 79.8851C79.6146 79.4677 78.1748 79.0347 77.3432 78.5862L76.0956 77.9613C75.8077 77.8331 75.6638 77.625 75.664 77.337C75.6642 77.049 75.6963 76.8411 75.7604 76.7131C75.7925 76.5531 75.8406 76.4412 75.9046 76.3772C75.9367 76.2812 75.9528 76.2172 75.9528 76.1852ZM83.8512 37.0454C83.947 37.3975 84.0589 37.5736 84.1869 37.5737C84.2829 37.5737 84.4751 37.1899 84.7636 36.4221C85.0522 35.6543 85.5007 34.9346 86.1091 34.263C86.7176 33.5594 87.4539 33.0639 88.3181 32.7765C89.6304 32.3293 91.0386 32.1063 92.5426 32.1073C94.0466 32.1083 95.2946 31.9972 96.2868 31.7738C97.2469 31.5505 97.9831 31.279 98.4953 30.9593C99.5838 30.3201 100.256 29.7285 100.513 29.1847L100.705 28.8488C100.833 28.6569 100.993 28.561 101.185 28.5612C101.665 28.5615 102.08 29.3458 102.431 30.914C102.814 32.4823 103.005 33.6984 103.005 34.5624C103.004 36.2584 102.331 37.3459 100.987 37.825C99.6104 38.2721 97.2743 38.4945 93.9783 38.4923L91.3383 38.4905C88.5543 38.4886 86.7777 39.3194 86.0086 40.9829C85.7201 41.6227 85.5756 42.3906 85.575 43.2866L85.575 43.3346C85.5748 43.6226 85.3027 43.7664 84.7587 43.7661C84.1827 43.7657 83.6068 43.6053 83.031 43.2849C82.4552 42.9325 82.1675 42.6283 82.1676 42.3723C82.1683 41.3163 81.977 40.4042 81.5935 39.6359C81.178 38.8676 80.6824 38.3073 80.1066 37.9549C78.8911 37.2181 77.8514 36.8174 76.9874 36.7528L76.3634 36.7524C75.1794 36.7516 74.1873 36.9429 73.387 37.3264C72.5548 37.7098 71.9785 38.1894 71.6581 38.7652C71.1454 39.7249 70.8888 40.7007 70.8881 41.6927C70.8874 42.6847 70.9669 43.5007 71.1264 44.1408C71.3818 45.037 71.6535 45.4852 71.9415 45.4854C76.1333 45.7762 80.1812 45.923 84.0852 45.9256C87.9572 45.9282 90.9333 45.8822 93.0133 45.7876C95.0614 45.661 96.7255 45.5501 98.0055 45.455C99.2536 45.3279 99.9897 45.2644 100.214 45.2645C100.63 45.2648 100.918 45.377 101.077 45.6011C102.293 46.9139 102.899 48.9783 102.897 51.7943C102.897 52.2743 102.737 52.5142 102.417 52.514C102.321 52.5139 102.097 52.4658 101.745 52.3695C101.009 52.049 98.6732 51.8235 94.7373 51.6928C90.8014 51.5301 87.2175 51.4477 83.9855 51.4455C80.7215 51.4433 78.0815 51.5055 76.0654 51.6322C73.0252 51.8221 71.201 52.1409 70.5927 52.5885C70.1445 52.9402 69.8404 53.116 69.6804 53.1159C69.4884 53.1157 69.2965 52.9396 69.1047 52.5875C68.1461 50.5388 67.6686 46.8265 67.6722 41.4505C67.6752 37.1305 68.8934 33.8993 71.3268 31.757C72.6716 30.6059 74.352 30.031 76.368 30.0324C77.584 30.0332 78.6718 30.2739 79.6315 30.7546C80.5912 31.2352 81.3268 31.8277 81.8383 32.5321C82.8614 33.8768 83.4845 35.1412 83.7077 36.3253L83.8512 37.0454Z" fill="#FF0000"/>
</svg>
